<?xml version="1.0" encoding="UTF-8" standalone="no"?>
<svg
   version="1.1"
   style="display:block"
   viewBox="0 0 576.98804 574.6308"
   width="288.49402"
   height="287.3154"
   preserveAspectRatio="none"
   id="svg20"
   sodipodi:docname="logo.svg"
   xmlns:inkscape="http://www.inkscape.org/namespaces/inkscape"
   xmlns:sodipodi="http://sodipodi.sourceforge.net/DTD/sodipodi-0.dtd"
   xmlns="http://www.w3.org/2000/svg"
   xmlns:svg="http://www.w3.org/2000/svg">
  <defs
     id="defs20" />
  <sodipodi:namedview
     id="namedview20"
     pagecolor="#ffffff"
     bordercolor="#000000"
     borderopacity="0.25"
     inkscape:showpageshadow="2"
     inkscape:pageopacity="0.0"
     inkscape:pagecheckerboard="0"
     inkscape:deskcolor="#d1d1d1">
    <inkscape:page
       x="0"
       y="0"
       width="576.98804"
       height="574.6308"
       id="page2"
       margin="0"
       bleed="0" />
  </sodipodi:namedview>
  <path
     id="path3"
     style="display:inline"
     d="M 465.75633,8.9032027e-5 C 450.84383,-0.01911097 435.92913,2.889159 421.88913,8.726659 c -31.8,13.23 -49.2481,35.74247 -61.8281,66.73046 -7.36,26.055001 -6.5714,33.937911 -3.1914,60.378911 -35.59,13.094 -71.2505,25.98859 -106.9805,38.68359 -15.12,5.39901 -39.7184,13.28497 -53.8984,19.66797 -15.52,-25.465 -35.84848,-42.78472 -65.35548,-50.01171 -27.80099,-6.78801 -57.158837,-2.22722 -81.589837,12.67578 -22.991,14.297 -40.3980899,37.90134 -46.3710899,64.40234 -6.374,27.8 -1.24535,56.99794 14.2226499,80.96094 14.841,22.788 38.14182,38.7315 64.75782,44.3125 31.371997,6.617 56.946527,-0.81235 83.644537,-17.02735 43.38,36.205 91.4022,75.61166 135.7422,110.72266 -9.34,28.898 -11.1202,54.58347 3.3398,82.48047 12.06,22.892 32.7674,40.00987 57.5274,47.54687 25.32,7.83201 52.7417,5.08491 76.0117,-7.62109 21.74,-11.794 37.9173,-31.70853 45.0273,-55.39453 3.7,-12.768 2.56,-22.39341 4.5,-30.06641 -0.22,-8.94 -2.7287,-21.63159 -4.4687,-30.55859 -0.98,-1.209 -6.2178,-12.23953 -7.5078,-14.64453 -10.36,-19.21 -19.1435,-26.1136 -36.7735,-38.0586 5.89,-16.757 13.59,-50.3095 18.25,-68.9375 8.5,-34.009 18.8313,-70.68197 26.2813,-104.66796 7.11,-1.41 13.4312,-2.64325 20.2812,-5.03126 27.74,-9.714 50.408,-30.17153 62.918,-56.76953 12.34,-26.039 13.9319,-55.88884 4.4219,-83.089841 -0.59,-1.835 -1.0105,-3.10344 -1.7305,-4.89844 -10.74,-27.724 -32.1917,-49.95187 -59.5117,-61.67187 -14.03,-5.8735 -28.9391,-8.82059997 -43.8516,-8.839849967973 z M 466.48683,43.863379 c 33.6923,0.29159 62.4086,25.95234 65.793,60.199211 3.61,36.53 -22.951,69.12385 -59.461,72.96485 -36.83,3.875 -69.7797,-22.97694 -73.4297,-59.83594 -3.64,-36.859001 23.4208,-69.634971 60.3008,-73.042971 2.2844,-0.21106 4.5507,-0.30459 6.7969,-0.28515 z m -89.7461,135.671871 c 3.81,1.185 16.5,16.7165 22.75,20.8125 13.8,9.059 21.6302,12.34509 37.1601,17.12109 -13.93,54.301 -27.6206,111.12825 -42.6406,164.90625 -26.76,-0.707 -42.37,5.26707 -64,20.53907 -11.86,-10.695 -27.0415,-22.4565 -39.6015,-32.6875 -31.13,-25.354 -62.111,-50.87741 -92.961,-76.56641 9.01,-17.502 11.56,-34.74397 11.75,-54.16797 54.13,-18.089 113.833,-40.01703 167.543,-59.95703 z m -273.91016,4.83203 c 30.49867,-0.95502 57.37734,21.29281 61.55856,52.17969 4.46,32.946 -18.59813,63.2835 -51.53512,67.8125 -33.035997,4.541 -63.482127,-18.59953 -67.953127,-51.64453 -4.472,-33.046 18.73016,-63.44275 51.78516,-67.84375 2.05975,-0.27425 4.111277,-0.44024 6.144527,-0.50391 z m 287.79686,240.67188 c 24.9445,-0.0616 47.3041,17.45671 52.4141,42.87109 5.85,29.045 -13.0702,57.29531 -42.1602,62.94531 -28.81,5.596 -56.7334,-13.11081 -62.5234,-41.88281 -5.79,-28.773 12.7309,-56.82078 41.4609,-62.80078 3.6263,-0.75463 7.2451,-1.12401 10.8086,-1.13281 z" />
</svg>
