<?xml version="1.0" encoding="UTF-8" standalone="no"?>
<svg
   version="1.1"
   style="display: block;"
   viewBox="0 0 2048 2048"
   width="1024"
   height="1024"
   preserveAspectRatio="none"
   id="svg20"
   sodipodi:docname="logo.svg"
   inkscape:version="1.4.2 (ebf0e940, 2025-05-08)"
   xmlns:inkscape="http://www.inkscape.org/namespaces/inkscape"
   xmlns:sodipodi="http://sodipodi.sourceforge.net/DTD/sodipodi-0.dtd"
   xmlns="http://www.w3.org/2000/svg"
   xmlns:svg="http://www.w3.org/2000/svg">
  <defs
     id="defs20" />
  <sodipodi:namedview
     id="namedview20"
     pagecolor="#ffffff"
     bordercolor="#000000"
     borderopacity="0.25"
     inkscape:showpageshadow="2"
     inkscape:pageopacity="0.0"
     inkscape:pagecheckerboard="0"
     inkscape:deskcolor="#d1d1d1"
     inkscape:zoom="0.18478217"
     inkscape:cx="-857.76674"
     inkscape:cy="-581.76608"
     inkscape:window-width="1728"
     inkscape:window-height="990"
     inkscape:window-x="0"
     inkscape:window-y="38"
     inkscape:window-maximized="1"
     inkscape:current-layer="svg20" />
  <path
     transform="translate(0,0)"
     fill="rgb(63,135,201)"
     d="M 1197.69 500.954 C 1210.27 469.966 1227.72 447.451 1259.52 434.221 C 1287.6 422.546 1319.18 422.587 1347.24 434.334 C 1374.56 446.054 1396.01 468.285 1406.75 496.009 C 1407.47 497.804 1407.89 499.07 1408.48 500.905 L 1527.19 500.808 C 1546.81 500.778 1567.06 500.336 1586.8 501.244 C 1602.29 501.973 1609.03 510.26 1609.85 525.443 C 1610.73 541.675 1609.92 558.285 1609.88 574.484 C 1609.81 600.252 1584.67 598.543 1565.47 602.552 C 1470.25 622.429 1378.07 678.737 1336.73 769.835 C 1321.27 803.922 1315.11 835.128 1320.61 872.105 C 1322.35 881.032 1324.86 893.723 1325.08 902.663 C 1336.1 940.926 1370.01 974.435 1406.53 989.313 C 1433.05 1000.12 1464.15 1006.6 1471.16 1040.55 C 1473.76 1053.14 1471.68 1068.92 1472.06 1081.94 C 1471.64 1096.07 1473.41 1110.96 1471.92 1125.01 C 1469.6 1146.89 1444.55 1143.03 1429.78 1143.03 L 1379.83 1143.04 L 1308.18 1143.03 C 1294.57 1143.02 1281.19 1143.28 1267.48 1142.61 C 1254.76 1141.98 1249.58 1139.57 1244.38 1127.21 C 1241.97 1121.46 1240.21 1110.35 1237.67 1105.58 C 1179.57 996.508 974.933 996.171 910.712 1099.01 C 898.873 1117.96 906.031 1142.38 876.886 1142.71 C 826.717 1143.27 775.704 1143.52 725.5 1142.59 C 714.466 1143.99 704.551 1131.19 705.571 1120.08 C 707.692 1096.97 702.773 1063.06 707.431 1040.97 C 716.426 998.325 756.84 998.883 789.193 986.647 C 810.06 978.889 828.762 966.24 843.732 949.761 C 878.348 911.192 882.669 854.763 846.57 815.647 C 804.875 770.467 750.255 767.785 693.078 764.119 C 670.578 762.676 643.15 757.507 621.435 751.496 C 562.807 734.696 508.751 704.822 463.331 664.121 C 444.038 647.095 386.573 594.411 412.256 565.168 C 419.96 556.395 450.6 559.118 463.045 559.121 L 534.475 559.111 L 763.995 559.142 L 763.827 537.103 C 763.594 514.651 765.523 501.939 791.116 501.047 C 806.342 500.516 821.658 500.829 836.897 500.831 L 925.055 500.837 L 1197.69 500.954 z"
     id="path2" />
  <path
     transform="translate(0,0)"
     fill="rgb(250,194,54)"
     d="M 1197.69 500.954 C 1210.27 469.966 1227.72 447.451 1259.52 434.221 C 1287.6 422.546 1319.18 422.587 1347.24 434.334 C 1374.56 446.054 1396.01 468.285 1406.75 496.009 C 1407.47 497.804 1407.89 499.07 1408.48 500.905 L 1527.19 500.808 C 1546.81 500.778 1567.06 500.336 1586.8 501.244 C 1602.29 501.973 1609.03 510.26 1609.85 525.443 C 1610.73 541.675 1609.92 558.285 1609.88 574.484 C 1609.81 600.252 1584.67 598.543 1565.47 602.552 C 1470.25 622.429 1378.07 678.737 1336.73 769.835 C 1321.27 803.922 1315.11 835.128 1320.61 872.105 C 1322.35 881.032 1324.86 893.723 1325.08 902.663 C 1323.14 910.336 1324.28 919.962 1320.58 932.73 C 1313.47 956.416 1297.29 976.33 1275.55 988.124 C 1252.28 1000.83 1224.86 1003.58 1199.54 995.748 C 1174.78 988.211 1154.07 971.091 1142.01 948.199 C 1127.55 920.302 1129.33 894.615 1138.67 865.717 C 1094.33 830.606 1046.31 791.201 1002.93 754.996 C 976.232 771.211 950.657 778.639 919.285 772.022 C 892.669 766.441 869.37 750.497 854.529 727.709 C 839.061 703.746 833.932 674.551 840.306 646.751 C 846.279 620.25 863.684 596.644 886.675 582.347 C 911.106 567.444 940.465 562.883 968.266 569.671 C 997.773 576.898 1018.1 594.22 1033.62 619.685 C 1047.8 613.302 1072.4 605.413 1087.52 600.014 C 1123.25 587.319 1158.91 574.425 1194.5 561.331 C 1191.12 534.89 1190.33 527.009 1197.69 500.954 z"
     id="path3" />
  <path
     transform="translate(0,0)"
     fill="rgb(63,135,201)"
     d="M 1408.48 500.905 L 1527.19 500.808 C 1546.81 500.778 1567.06 500.336 1586.8 501.244 C 1602.29 501.973 1609.03 510.26 1609.85 525.443 C 1610.73 541.675 1609.92 558.285 1609.88 574.484 C 1609.81 600.252 1584.67 598.543 1565.47 602.552 C 1470.25 622.429 1378.07 678.737 1336.73 769.835 C 1321.27 803.922 1315.11 835.128 1320.61 872.105 C 1319.63 870.896 1314.39 859.865 1313.1 857.46 C 1302.74 838.25 1293.96 831.349 1276.33 819.404 C 1282.22 802.647 1289.92 769.092 1294.58 750.464 C 1303.08 716.455 1313.41 679.782 1320.86 645.796 C 1327.97 644.386 1334.29 643.152 1341.14 640.764 C 1368.88 631.05 1391.55 610.594 1404.06 583.996 C 1416.4 557.957 1417.99 528.106 1408.48 500.905 z"
     id="path4" />
  <path
     transform="translate(0,0)"
     fill="rgb(63,135,201)"
     d="M 1214.37 605.03 C 1218.18 606.215 1230.87 621.747 1237.12 625.843 C 1250.92 634.902 1258.75 638.19 1274.28 642.966 C 1260.35 697.267 1246.66 754.093 1231.64 807.871 C 1204.88 807.164 1189.27 813.139 1167.64 828.411 C 1155.78 817.716 1140.6 805.952 1128.04 795.721 C 1096.91 770.367 1065.93 744.845 1035.08 719.156 C 1044.09 701.654 1046.64 684.414 1046.83 664.99 C 1100.96 646.901 1160.66 624.97 1214.37 605.03 z"
     id="path5" />
  <path
     transform="translate(0,0)"
     fill="rgb(255,255,255)"
     d="M 1297.32 469.643 C 1333.87 466.266 1366.3 493.03 1369.91 529.56 C 1373.52 566.09 1346.96 598.682 1310.45 602.523 C 1273.62 606.398 1240.67 579.548 1237.02 542.689 C 1233.38 505.83 1260.44 473.051 1297.32 469.643 z"
     id="path6" />
  <path
     transform="translate(0,0)"
     fill="rgb(255,255,255)"
     d="M 934.317 610.367 C 967.273 605.979 997.56 629.098 1002.02 662.044 C 1006.48 694.99 983.422 725.326 950.485 729.855 C 917.449 734.396 887.001 711.257 882.53 678.212 C 878.058 645.166 901.262 614.768 934.317 610.367 z"
     id="path7" />
  <path
     transform="translate(0,0)"
     fill="rgb(255,255,255)"
     d="M 1217.45 851.667 C 1246.46 845.63 1274.83 864.363 1280.67 893.408 C 1286.52 922.453 1267.6 950.702 1238.51 956.352 C 1209.7 961.948 1181.78 943.242 1175.99 914.47 C 1170.2 885.697 1188.72 857.647 1217.45 851.667 z"
     id="path8" />
  <path
     transform="translate(0,0)"
     fill="rgb(63,135,201)"
     d="M 460.84 1254 C 518.848 1247 571.541 1288.36 578.521 1346.37 C 585.5 1404.38 544.123 1457.06 486.11 1464.03 C 428.121 1470.99 375.466 1429.63 368.489 1371.64 C 361.512 1313.66 402.855 1260.99 460.84 1254 z"
     id="path9" />
  <path
     transform="translate(0,0)"
     fill="rgb(255,255,255)"
     d="M 465.922 1297.2 C 500.138 1292.99 531.291 1317.3 535.53 1351.51 C 539.769 1385.72 515.49 1416.9 481.283 1421.17 C 447.029 1425.45 415.799 1401.13 411.555 1366.87 C 407.31 1332.61 431.66 1301.41 465.922 1297.2 z"
     id="path10" />
  <path
     transform="translate(0,0)"
     fill="rgb(63,135,201)"
     d="M 1156.07 1258.25 C 1168.01 1257.77 1181.46 1257.93 1193.36 1258.28 C 1199.68 1268.09 1208.38 1285.92 1214.07 1296.82 C 1226.2 1320.25 1238.51 1343.59 1250.98 1366.83 L 1287.76 1297.4 C 1292.99 1287.5 1303.39 1266.64 1309.74 1258.37 C 1318.57 1257.72 1342.32 1256.46 1349.11 1260.54 C 1352.82 1270.6 1368.34 1440.5 1366.85 1458.3 C 1362.44 1461.21 1330.85 1460.94 1325.96 1458.63 C 1322.54 1453.17 1318.66 1390.13 1317.75 1378.76 C 1316.21 1365.73 1315.58 1352.13 1313.97 1338.59 C 1299.32 1364.82 1285.48 1391.6 1271.02 1417.95 C 1267.36 1424.63 1264.09 1431.23 1259.73 1437.53 C 1254 1438.01 1248.91 1437.78 1243.18 1437.65 C 1238.23 1431.5 1229.22 1413.42 1225 1405.74 C 1212.73 1383.39 1201.19 1360.38 1188.39 1338.3 C 1185.98 1363.84 1183.86 1389.4 1182.02 1414.98 C 1180.97 1428.52 1180.45 1442.64 1177.71 1455.94 C 1176.36 1462.49 1160.97 1459.63 1155.59 1460.11 C 1150.64 1460.56 1141.55 1460.69 1137.37 1458.57 C 1135.2 1453.43 1138.4 1425.37 1139.04 1417.92 C 1141.4 1389.25 1143.97 1360.6 1146.76 1331.97 C 1148.66 1310.71 1149.81 1289.04 1152.25 1267.83 C 1152.76 1263.42 1153.32 1261.55 1156.07 1258.25 z"
     id="path11" />
  <path
     transform="translate(0,0)"
     fill="rgb(63,135,201)"
     d="M 615.75 1258.21 C 638.132 1257.2 702.107 1255.85 721.358 1262.54 C 777.561 1282.06 781.776 1356.74 724.843 1384.94 C 731.235 1395.19 767.07 1449.94 767.92 1457.5 C 763.096 1461.66 739.918 1460.24 732.168 1460.17 L 721.834 1459.87 C 713.795 1451.36 687.941 1402.48 678.909 1388.48 L 658.561 1388.74 C 658.668 1407.06 659.806 1443.12 657.799 1459.85 C 644.651 1460.5 627.488 1460.4 614.406 1459.8 C 612.756 1450.45 613.218 1435.26 613.211 1425.3 L 613.19 1370.83 L 613.203 1301.06 C 613.207 1292.57 611.825 1264.06 615.75 1258.21 z"
     id="path12" />
  <path
     transform="translate(0,0)"
     fill="rgb(255,255,255)"
     d="M 658.411 1299.3 C 678.06 1299.99 716.62 1292.55 720.029 1318.96 C 721.41 1329.66 719.597 1335.46 713.058 1343.62 C 700.324 1353.09 675.175 1350.02 658.276 1349.87 C 658.571 1333.02 658.616 1316.15 658.411 1299.3 z"
     id="path13" />
  <path
     transform="translate(0,0)"
     fill="rgb(63,135,201)"
     d="M 195.856 1258.28 C 210.562 1257.72 226.065 1257.91 240.894 1257.92 C 269.451 1258.04 302.028 1255.13 324.55 1276.55 C 349.894 1300.65 349.929 1346.88 325.936 1372 C 310.669 1387.99 292.079 1391.8 270.75 1392.27 L 238.828 1392.6 C 238.92 1407.61 240.02 1441.3 237.871 1456.94 C 237.213 1461.73 199.65 1461.08 194.604 1458.43 C 192.273 1449.23 193.107 1432.86 193.096 1422.95 L 193.071 1366.72 L 193.1 1300.47 C 193.107 1292.54 191.674 1263.43 195.856 1258.28 z"
     id="path14" />
  <path
     transform="translate(0,0)"
     fill="rgb(255,255,255)"
     d="M 238.919 1299.34 C 249.319 1299.61 260.981 1299.52 271.415 1299.35 C 298.325 1298.9 308.423 1324.08 292.523 1345.13 C 278.678 1356.13 256.818 1352.95 238.822 1352.7 L 238.919 1299.34 z"
     id="path15" />
  <path
     transform="translate(0,0)"
     fill="rgb(63,135,201)"
     d="M 1688.81 1258.15 C 1698.16 1258.01 1721.97 1256.51 1728.73 1260 C 1731.96 1267.96 1730.5 1325.28 1730.38 1336.94 L 1806.51 1337 L 1806.36 1291.98 C 1806.34 1284.03 1804.45 1262.78 1811.09 1258.2 C 1819.28 1257.69 1842.98 1256.79 1849.47 1260.1 C 1851.92 1267.31 1851.07 1285.56 1851.07 1293.95 L 1851 1347.22 C 1850.89 1380.9 1851.18 1414.55 1851.12 1448.21 C 1851.1 1455.03 1851.25 1459.02 1844.25 1460.11 C 1831.87 1460.16 1819.7 1460.28 1807.32 1459.82 C 1805.27 1442.32 1806.52 1396.26 1806.7 1376.8 L 1730.36 1376.76 C 1730.48 1399.56 1731.75 1438.38 1729.83 1459.82 C 1720.82 1460.03 1696.67 1461.05 1689.11 1459.61 C 1684.07 1455.11 1685.58 1422.55 1685.59 1415.07 L 1685.72 1348.23 C 1685.78 1331.01 1685.73 1313.79 1685.57 1296.57 C 1685.5 1287.4 1683.73 1264.43 1688.81 1258.15 z"
     id="path16" />
  <path
     transform="translate(0,0)"
     fill="rgb(63,135,201)"
     d="M 1024.64 1254.35 C 1056.99 1251.09 1090.83 1265.04 1103.71 1296.46 C 1094.77 1302.87 1076.53 1311.62 1066.24 1316.69 C 1063.81 1312.74 1061.28 1308.31 1057.99 1304.92 C 1046.84 1293.48 1025.74 1291.1 1013.35 1301.62 C 1004.6 1309.04 1007.81 1323.47 1017.29 1328.49 C 1040.55 1340.81 1069.76 1341.72 1090.01 1360.3 C 1113.04 1381.02 1111.48 1420.89 1090.26 1442.37 C 1074.94 1457.89 1057.01 1463.56 1035.62 1464.08 C 1002.24 1464.35 969.173 1450.79 955.622 1418.32 C 965.682 1411.85 980.961 1404.31 991.883 1399.18 C 996.06 1405.7 997.225 1407.22 1003.42 1413.38 C 1017.84 1427.73 1064.7 1428.54 1063.3 1401.37 C 1062.33 1382.68 1023.71 1374.56 1006.49 1369.33 C 964.488 1356.56 951.006 1315.08 975.488 1279.44 C 985.773 1264.51 1005.58 1256.78 1024.64 1254.35 z"
     id="path17" />
  <path
     transform="translate(0,0)"
     fill="rgb(63,135,201)"
     d="M 1497.13 1258.31 C 1511.63 1257.45 1643.85 1256.46 1648.25 1259.39 C 1649.88 1260.47 1650.78 1262.73 1651.22 1264.54 C 1652.62 1270.3 1652.76 1293.26 1649.8 1297.85 C 1642.61 1300.57 1604.5 1299.34 1594.37 1299.26 L 1594.43 1404.75 C 1594.47 1422.19 1594.98 1442.6 1593.82 1459.76 C 1581.18 1460.57 1563.07 1460.29 1550.37 1459.84 C 1548.51 1449.43 1549.24 1417.17 1549.24 1405.37 L 1549.43 1299.32 C 1538.71 1299.44 1505.59 1300.51 1497.06 1298.31 C 1492.62 1294.15 1492.66 1263.28 1497.13 1258.31 z"
     id="path18" />
  <path
     transform="translate(0,0)"
     fill="rgb(63,135,201)"
     d="M 790.689 1258.21 C 806.613 1257.66 933.145 1256.73 937.521 1258.85 C 939.757 1259.93 940.853 1264 941.285 1266.21 C 942.838 1274.18 943.758 1291.29 939.188 1298.09 C 932.77 1301.05 897.442 1299.48 888.016 1299.34 L 888.038 1410.33 C 888.033 1420.56 889.461 1450.35 886.555 1458.02 C 880.83 1461.6 849.031 1461.68 843.613 1456.92 C 842.236 1449.82 842.868 1417.92 842.875 1408.77 L 842.972 1299.43 C 832.008 1299.55 799.05 1300.67 790.26 1298.25 C 785.761 1293.36 788.719 1276.57 787.788 1269.27 C 787.198 1264.64 787.602 1261.4 790.689 1258.21 z"
     id="path19" />
  <path
     transform="translate(0,0)"
     fill="rgb(63,135,201)"
     d="M 1414.79 1258.22 C 1424.14 1257.86 1447.26 1256.7 1454.82 1260 C 1456.19 1262.28 1456.22 1268.53 1456.21 1271.36 C 1456.11 1332.84 1456.88 1394.39 1456.02 1455.84 C 1455.98 1458.53 1454.89 1458.59 1452.94 1460.02 C 1444.79 1460.14 1419.11 1461.31 1412.59 1458.78 C 1411.51 1454.44 1411.16 1449.1 1411.17 1444.57 C 1411.21 1384.74 1410.49 1324.83 1411.46 1265.01 C 1411.52 1261.61 1412.64 1260.49 1414.79 1258.22 z"
     id="path20" />
</svg>
