<?xml version="1.0" encoding="UTF-8" standalone="no"?>
<svg
   version="1.1"
   style="display:block"
   viewBox="0 0 1800 1100"
   width="900"
   height="550"
   preserveAspectRatio="none"
   id="svg20"
   sodipodi:docname="logo.svg"
   inkscape:version="1.4.2 (ebf0e940, 2025-05-08)"
   xmlns:inkscape="http://www.inkscape.org/namespaces/inkscape"
   xmlns:sodipodi="http://sodipodi.sourceforge.net/DTD/sodipodi-0.dtd"
   xmlns="http://www.w3.org/2000/svg"
   xmlns:svg="http://www.w3.org/2000/svg">
  <defs
     id="defs20" />
  <sodipodi:namedview
     id="namedview20"
     pagecolor="#ffffff"
     bordercolor="#000000"
     borderopacity="0.25"
     inkscape:showpageshadow="2"
     inkscape:pageopacity="0.0"
     inkscape:pagecheckerboard="0"
     inkscape:deskcolor="#d1d1d1"
     inkscape:zoom="0.63336493"
     inkscape:cx="439.7149"
     inkscape:cy="438.13604"
     inkscape:window-width="1728"
     inkscape:window-height="988"
     inkscape:window-x="0"
     inkscape:window-y="38"
     inkscape:window-maximized="1"
     inkscape:current-layer="svg20" />
  <path
     fill="#3f87c9"
     d="m 1055.5918,99.921376 c 12.58,-30.988 30.03,-53.503 61.83,-66.733 28.08,-11.675 59.66,-11.634 87.72,0.113 27.32,11.72 48.77,33.951 59.51,61.675 0.72,1.795 1.14,3.061 1.73,4.896 l 118.71,-0.097 c 19.62,-0.03 39.87,-0.472 59.61,0.436004 15.49,0.729 22.23,9.016 23.05,24.199 0.88,16.232 0.07,32.842 0.03,49.041 -0.07,25.768 -25.21,24.059 -44.41,28.068 -95.22,19.877 -187.4,76.185 -228.74,167.283 -15.46,34.087 -21.62,65.293 -16.12,102.27 1.74,8.927 4.25,21.618 4.47,30.558 11.02,38.263 44.93,71.772 81.45,86.65 26.52,10.807 57.62,17.287 64.63,51.237 2.6,12.59 0.52,28.37 0.9,41.39 -0.42,14.13 1.35,29.02 -0.14,43.07 -2.32,21.88 -27.37,18.02 -42.14,18.02 l -49.95,0.01 -71.65,-0.01 c -13.61,-0.01 -26.99,0.25 -40.7,-0.42 -12.72,-0.63 -17.9,-3.04 -23.1,-15.4 -2.41,-5.75 -4.17,-16.86 -6.71,-21.63 -58.1,-109.072 -262.73697,-109.409 -326.95797,-6.57 -11.839,18.95 -4.681,43.37 -33.826,43.7 -50.169,0.56 -101.182,0.81 -151.386,-0.12 -11.034,1.4 -20.949,-11.4 -19.929,-22.51 2.121,-23.11 -2.798,-57.02 1.86,-79.11 8.995,-42.645 49.409,-42.087 81.762,-54.323 20.867,-7.758 39.569,-20.407 54.539,-36.886 34.616,-38.569 38.937,-94.998 2.838,-134.114 -41.695,-45.18 -96.315,-47.862 -153.492,-51.528 -22.5,-1.443 -49.928,-6.612 -71.643,-12.623 -58.628,-16.8 -112.684,-46.674 -158.104,-87.375 -19.293,-17.026 -76.758,-69.71 -51.075,-98.953 7.704,-8.773 38.344,-6.05 50.789,-6.047 l 71.43,-0.01 229.52,0.031 -0.168,-22.039 c -0.233,-22.452 1.696,-35.164 27.289,-36.056 15.226,-0.531004 30.542,-0.218004 45.781,-0.216004 l 88.158,0.006 z"
     id="path2" />
  <path
     fill="#fac236"
     d="m 1055.5918,99.921376 c 12.58,-30.988 30.03,-53.503 61.83,-66.733 28.08,-11.675 59.66,-11.634 87.72,0.113 27.32,11.72 48.77,33.951 59.51,61.675 0.72,1.795 1.14,3.061 1.73,4.896 l 118.71,-0.097 c 19.62,-0.03 39.87,-0.472 59.61,0.436004 15.49,0.729 22.23,9.016 23.05,24.199 0.88,16.232 0.07,32.842 0.03,49.041 -0.07,25.768 -25.21,24.059 -44.41,28.068 -95.22,19.877 -187.4,76.185 -228.74,167.283 -15.46,34.087 -21.62,65.293 -16.12,102.27 1.74,8.927 4.25,21.618 4.47,30.558 -1.94,7.673 -0.8,17.299 -4.5,30.067 -7.11,23.686 -23.29,43.6 -45.03,55.394 -23.27,12.706 -50.69,15.456 -76.01,7.624 -24.76,-7.537 -45.47,-24.657 -57.52997,-47.549 -14.46,-27.897 -12.68,-53.584 -3.34,-82.482 -44.34,-35.111 -92.36,-74.516 -135.74,-110.721 -26.698,16.215 -52.273,23.643 -83.645,17.026 -26.616,-5.581 -49.915,-21.525 -64.756,-44.313 -15.468,-23.963 -20.597,-53.158 -14.223,-80.958 5.973,-26.501 23.378,-50.107 46.369,-64.404 24.431,-14.903 53.79,-19.464 81.591,-12.676 29.507,7.227 49.834,24.549 65.354,50.014 14.18,-6.383 38.78,-14.272 53.9,-19.671 35.73,-12.695 71.38997,-25.589 106.97997,-38.683 -3.38,-26.441 -4.17,-34.322 3.19,-60.377004 z"
     id="path3" />
  <path
     fill="#3f87c9"
     d="m 1266.3818,99.872376 118.71,-0.097 c 19.62,-0.03 39.87,-0.472 59.61,0.436004 15.49,0.729 22.23,9.016 23.05,24.199 0.88,16.232 0.07,32.842 0.03,49.041 -0.07,25.768 -25.21,24.059 -44.41,28.068 -95.22,19.877 -187.4,76.185 -228.74,167.283 -15.46,34.087 -21.62,65.293 -16.12,102.27 -0.98,-1.209 -6.22,-12.24 -7.51,-14.645 -10.36,-19.21 -19.14,-26.111 -36.77,-38.056 5.89,-16.757 13.59,-50.312 18.25,-68.94 8.5,-34.009 18.83,-70.682 26.28,-104.668 7.11,-1.41 13.43,-2.644 20.28,-5.032 27.74,-9.714 50.41,-30.17 62.92,-56.768 12.34,-26.039 13.93,-55.89 4.42,-83.091004 z"
     id="path4" />
  <path
     fill="#3f87c9"
     d="m 1072.2718,203.99738 c 3.81,1.185 16.5,16.717 22.75,20.813 13.8,9.059 21.63,12.347 37.16,17.123 -13.93,54.301 -27.62,111.127 -42.64,164.905 -26.76,-0.707 -42.37,5.268 -64,20.54 -11.86,-10.695 -27.03997,-22.459 -39.59997,-32.69 -31.13,-25.354 -62.11,-50.876 -92.96,-76.565 9.01,-17.502 11.56,-34.742 11.75,-54.166 54.13,-18.089 113.82997,-40.02 167.53997,-59.96 z"
     id="path5" />
  <path
     fill="#ffffff"
     d="m 1155.2218,68.610376 c 36.55,-3.377 68.98,23.387 72.59,59.917004 3.61,36.53 -22.95,69.122 -59.46,72.963 -36.83,3.875 -69.78,-22.975 -73.43,-59.834 -3.64,-36.859 23.42,-69.638004 60.3,-73.046004 z"
     id="path6" />
  <path
     fill="#ffffff"
     d="m 792.21883,209.33438 c 32.956,-4.388 63.243,18.731 67.703,51.677 4.46,32.946 -18.598,63.282 -51.535,67.811 -33.036,4.541 -63.484,-18.598 -67.955,-51.643 -4.472,-33.046 18.732,-63.444 51.787,-67.845 z"
     id="path7" />
  <path
     fill="#ffffff"
     d="m 1075.3518,450.63438 c 29.01,-6.037 57.38,12.696 63.22,41.741 5.85,29.045 -13.07,57.294 -42.16,62.944 -28.81,5.596 -56.73,-13.11 -62.52,-41.882 -5.79,-28.773 12.73,-56.823 41.46,-62.803 z"
     id="path8" />
  <path
     id="path9"
     d="m 329.54636,852.21348 c -3.57411,0.067 -7.17919,0.3164 -10.80469,0.7539 -57.985,6.99 -99.32856,59.6606 -92.35156,117.6406 6.977,57.99002 59.63209,99.35072 117.6211,92.39062 58.01299,-6.97 99.38915,-59.6501 92.41015,-117.66012 -6.54375,-54.3844 -53.26329,-94.1364 -106.875,-93.125 z m 0.65235,43.4961 c 31.6312,-0.6729 59.26031,22.6976 63.23437,54.7695 4.239,34.21 -20.043,65.39022 -54.25,69.66022 -34.254,4.28 -65.48256,-20.0408 -69.72656,-54.30082 -4.245,-34.26 20.10518,-65.4619 54.36719,-69.6719 2.1385,-0.2631 4.26625,-0.4122 6.375,-0.457 z"
     style="fill:#3f87c9;fill-opacity:1" />
  <path
     fill="#3f87c9"
     d="m 1013.9718,857.21738 c 11.94,-0.48 25.39,-0.32 37.29,0.03 6.32,9.81 15.02,27.64 20.71,38.54 12.13,23.43 24.44,46.77 36.91,70.01 l 36.78,-69.43 c 5.23,-9.9 15.63,-30.76 21.98,-39.03 8.83,-0.65 32.58,-1.91 39.37,2.17 3.71,10.06 19.23,179.96002 17.74,197.76002 -4.41,2.91 -36,2.64 -40.89,0.33 -3.42,-5.46 -7.3,-68.50002 -8.21,-79.87002 -1.54,-13.03 -2.17,-26.63 -3.78,-40.17 -14.65,26.23 -28.49,53.01 -42.95,79.36002 -3.66,6.68 -6.93,13.28 -11.29,19.58 -5.73,0.48 -10.82,0.25 -16.55,0.12 -4.95,-6.15 -13.96,-24.23 -18.18,-31.91 -12.27,-22.35002 -23.81,-45.36002 -36.61,-67.44002 -2.41,25.54 -4.53,51.1 -6.37,76.68002 -1.05,13.54 -1.57,27.66 -4.31,40.96 -1.35,6.55 -16.74,3.69 -22.12,4.17 -4.95,0.45 -14.03997,0.58 -18.21997,-1.54 -2.17,-5.14 1.03,-33.2 1.67,-40.65 2.36,-28.67002 4.92997,-57.32002 7.71997,-85.95002 1.9,-21.26 3.05,-42.93 5.49,-64.14 0.51,-4.41 1.07,-6.28 3.82,-9.58 z"
     id="path11" />
  <path
     id="path12"
     d="m 527.62839,856.45568 c -21.19787,-0.3725 -42.78556,0.2176 -53.97656,0.7226 -3.925,5.85 -2.54287,34.3577 -2.54688,42.8477 l -0.0117,69.7695 0.0195,54.47272 c 0.007,9.96 -0.45469,25.15 1.19531,34.5 13.082,0.6 30.24653,0.7008 43.39453,0.051 2.007,-16.73 0.86872,-52.7933 0.76172,-71.11332 l 20.34766,-0.2578 c 9.032,14.00002 34.88678,62.88062 42.92578,71.39062 l 10.33203,0.3008 c 7.75,0.07 30.92991,1.4881 35.75391,-2.6719 -0.85,-7.56 -36.68613,-62.30862 -43.07813,-72.55862 56.933,-28.2 52.71863,-102.8823 -3.48437,-122.4023 -9.6255,-3.345 -30.43494,-4.6783 -51.63282,-5.0508 z m 15.91797,41.3711 c 16.39361,0.3099 32.25219,3.5953 34.38281,20.1015 1.381,10.7 -0.42975,16.5002 -6.96875,24.6602 -12.734,9.47 -37.88225,6.4 -54.78125,6.25 0.295,-16.85 0.33782,-33.7203 0.13282,-50.5703 7.36837,0.2587 17.3982,-0.6274 27.23437,-0.4414 z"
     style="fill:#3f87c9;fill-opacity:1" />
  <path
     id="path14"
     d="m 120.74558,856.83848 c -7.42183,-0.079 -14.80997,0.081 -21.949224,0.051 -14.829,-0.01 -30.33306,-0.2006 -45.03906,0.3593 -4.182,5.15 -2.74691,34.2575 -2.75391,42.1876 l -0.0312,66.25 0.0273,56.23042 c 0.011,9.91 -0.82319,26.2805 1.50781,35.4805 5.046,2.65 42.60762,3.3017 43.26562,-1.4883 2.149,-15.64 1.04903,-49.3298 0.95703,-64.33982 l 31.921884,-0.3321 c 21.329,-0.47 39.9205,-4.2795 55.1875,-20.2695 23.993,-25.12 23.95728,-71.3492 -1.38672,-95.4492 -16.8915,-16.065 -39.44155,-18.4435 -61.70703,-18.6797 z m -23.925784,41.4687 c 10.400004,0.27 22.062094,0.1818 32.496094,0.012 26.91,-0.45 37.00938,24.7273 21.10938,45.7773 -13.845,11 -35.70713,7.8203 -53.703134,7.5703 z"
     style="fill:#3f87c9;fill-opacity:1" />
  <path
     fill="#3f87c9"
     d="m 1546.7118,857.11738 c 9.35,-0.14 33.16,-1.64 39.92,1.85 3.23,7.96 1.77,65.28 1.65,76.94 l 76.13,0.06 -0.15,-45.02 c -0.02,-7.95 -1.91,-29.2 4.73,-33.78 8.19,-0.51 31.89,-1.41 38.38,1.9 2.45,7.21 1.6,25.46 1.6,33.85 l -0.07,53.27 c -0.11,33.68 0.18,67.33002 0.12,100.99002 -0.02,6.82 0.13,10.81 -6.87,11.9 -12.38,0.05 -24.55,0.17 -36.93,-0.29 -2.05,-17.5 -0.8,-63.56002 -0.62,-83.02002 l -76.34,-0.04 c 0.12,22.8 1.39,61.62002 -0.53,83.06002 -9.01,0.21 -33.16,1.23 -40.72,-0.21 -5.04,-4.5 -3.53,-37.06 -3.52,-44.54 l 0.13,-66.84002 c 0.06,-17.22 0.01,-34.44 -0.15,-51.66 -0.07,-9.17 -1.84,-32.14 3.24,-38.42 z"
     id="path16" />
  <path
     fill="#3f87c9"
     d="m 882.54183,853.31738 c 32.35,-3.26 66.19,10.69 79.07,42.11 -8.94,6.41 -27.18,15.16 -37.47,20.23 -2.43,-3.95 -4.96,-8.38 -8.25,-11.77 -11.15,-11.44 -32.25,-13.82 -44.64,-3.3 -8.75,7.42 -5.54,21.85 3.94,26.87 23.26,12.32 52.47,13.23 72.72,31.81 23.03,20.72 21.47,60.59002 0.25,82.07002 -15.32,15.52 -33.25,21.19 -54.64,21.71 -33.38,0.27 -66.447,-13.29 -79.998,-45.76 10.06,-6.47 25.339,-14.01 36.261,-19.14002 4.177,6.52002 5.342,8.04002 11.537,14.20002 14.42,14.35 61.28,15.16 59.88,-12.01 -0.97,-18.69002 -39.59,-26.81002 -56.81,-32.04002 -42.002,-12.77 -55.484,-54.25 -31.002,-89.89 10.285,-14.93 30.092,-22.66 49.152,-25.09 z"
     id="path17" />
  <path
     fill="#3f87c9"
     d="m 1355.0318,857.27738 c 14.5,-0.86 146.72,-1.85 151.12,1.08 1.63,1.08 2.53,3.34 2.97,5.15 1.4,5.76 1.54,28.72 -1.42,33.31 -7.19,2.72 -45.3,1.49 -55.43,1.41 l 0.06,105.49002 c 0.04,17.44 0.55,37.85 -0.61,55.01 -12.64,0.81 -30.75,0.53 -43.45,0.08 -1.86,-10.41 -1.13,-42.67 -1.13,-54.47 l 0.19,-106.05002 c -10.72,0.12 -43.84,1.19 -52.37,-1.01 -4.44,-4.16 -4.4,-35.03 0.07,-40 z"
     id="path18" />
  <path
     fill="#3f87c9"
     d="m 648.59083,857.17738 c 15.924,-0.55 142.456,-1.48 146.832,0.64 2.236,1.08 3.332,5.15 3.764,7.36 1.553,7.97 2.473,25.08 -2.097,31.88 -6.418,2.96 -41.746,1.39 -51.172,1.25 l 0.022,110.99002 c -0.005,10.23 1.423,40.02 -1.483,47.69 -5.725,3.58 -37.524,3.66 -42.942,-1.1 -1.377,-7.1 -0.745,-39 -0.738,-48.15 l 0.097,-109.34002 c -10.964,0.12 -43.922,1.24 -52.712,-1.18 -4.499,-4.89 -1.541,-21.68 -2.472,-28.98 -0.59,-4.63 -0.186,-7.87 2.901,-11.06 z"
     id="path19" />
  <path
     fill="#3f87c9"
     d="m 1272.6918,857.18738 c 9.35,-0.36 32.47,-1.52 40.03,1.78 1.37,2.28 1.4,8.53 1.39,11.36 -0.1,61.48 0.67,123.03 -0.19,184.48002 -0.04,2.69 -1.13,2.75 -3.08,4.18 -8.15,0.12 -33.83,1.29 -40.35,-1.24 -1.08,-4.34 -1.43,-9.68 -1.42,-14.21 0.04,-59.83002 -0.68,-119.74002 0.29,-179.56002 0.06,-3.4 1.18,-4.52 3.33,-6.79 z"
     id="path20" />
</svg>
